<?xml version='1.0' encoding='ascii'?>
<svg xmlns="http://www.w3.org/2000/svg" version="1.1" width="1735" height="1029">
    <g id="ViewLayer_LineSet" xmlns:inkscape="http://www.inkscape.org/namespaces/inkscape" inkscape:groupmode="lineset" inkscape:label="ViewLayer_LineSet">
        <g xmlns:inkscape="http://www.inkscape.org/namespaces/inkscape" inkscape:groupmode="layer" id="strokes" inkscape:label="strokes">
            <path fill="none" stroke-width="3.0" stroke-linecap="butt" stroke-opacity="1.0" stroke="rgb(0, 0, 0)" stroke-linejoin="round" d=" M 1383.144, 887.873 1384.730, 887.053 1393.292, 881.887 1401.855, 876.722 1410.418, 871.556 1418.250, 866.832 1426.416, 861.059 1434.582, 855.287 1442.747, 849.515 1448.056, 845.763 1456.208, 839.971 1464.361, 834.180 1472.513, 828.389 1472.964, 828.069 1480.632, 821.651 1488.301, 815.232 1495.969, 808.814 1499.718, 805.677 1506.770, 798.586 1513.822, 791.496 1520.873, 784.406 1522.496, 782.774 1528.945, 775.130 1535.393, 767.487 1541.841, 759.844 1543.436, 757.953 1549.726, 750.179 1556.016, 742.405 1562.305, 734.631 1562.524, 734.360 1567.874, 725.912 1573.224, 717.463 1577.578, 710.586 1582.064, 701.649 1586.549, 692.711 1591.035, 683.773 1592.572, 680.710 1596.796, 671.646 1601.021, 662.582 1603.676, 656.885 1606.580, 647.316 1609.485, 637.747 1610.874, 633.172 1613.217, 623.450 1615.560, 613.728 1617.903, 604.007 1618.729, 600.576 1620.156, 590.679 1621.583, 580.781 1622.074, 577.377 1622.185, 567.378 1622.297, 557.379 1622.408, 547.379 1622.447, 543.881 1622.312, 533.882 1622.177, 523.882 1622.145, 521.547 1620.449, 511.692 1618.752, 501.837 1618.375, 499.644 1616.265, 489.869 1614.155, 480.094 1612.045, 470.319 1611.488, 467.739 1608.331, 458.251 1605.174, 448.762 1604.598, 447.031 1600.373, 437.966 1596.149, 428.902 1591.925, 419.838 1590.979, 417.808 1586.539, 408.848 1582.098, 399.888 1581.387, 398.453 1575.859, 390.120 1570.331, 381.787 1568.935, 379.684 1562.792, 371.794 1556.648, 363.904 1550.504, 356.013 1550.032, 355.407 1543.619, 347.734 1537.206, 340.061 1535.552, 338.081 1528.427, 331.064 1521.302, 324.046 1518.607, 321.391 1510.921, 314.994 1503.235, 308.597 1499.363, 305.375 1491.571, 299.108 1483.779, 292.841 1477.679, 287.935 1469.545, 282.118 1461.410, 276.302 1457.262, 273.336 1448.772, 268.052 1440.281, 262.769 1434.897, 259.419 1426.124, 254.621 1417.349, 249.824 1410.731, 246.204 1401.729, 241.850 1392.727, 237.495 1384.901, 233.710 1375.788, 229.592 1366.675, 225.475 1363.862, 224.203 1354.675, 220.255 1345.487, 216.307 1337.755, 212.984 1328.416, 209.410 1319.076, 205.837 1310.266, 202.465 1300.802, 199.237 1291.337, 196.008 1286.760, 194.446 " />
            <path fill="none" stroke-width="3.0" stroke-linecap="butt" stroke-opacity="1.0" stroke="rgb(0, 0, 0)" stroke-linejoin="round" d=" M 1152.062, 481.755 1161.335, 485.499 1166.500, 487.584 1175.603, 491.725 1184.705, 495.866 1186.922, 496.874 1195.820, 501.438 1204.718, 506.001 1205.874, 506.594 " />
            <path fill="none" stroke-width="3.0" stroke-linecap="butt" stroke-opacity="1.0" stroke="rgb(0, 0, 0)" stroke-linejoin="round" d=" M 1099.524, 463.598 1108.959, 466.582 1118.494, 469.597 1122.717, 470.933 1132.132, 474.302 1141.547, 477.671 1145.070, 478.932 1152.062, 481.755 " />
            <path fill="none" stroke-width="3.0" stroke-linecap="butt" stroke-opacity="1.0" stroke="rgb(0, 0, 0)" stroke-linejoin="round" d=" M 1062.310, 454.525 1072.028, 456.885 1081.745, 459.244 1088.294, 460.834 1097.928, 463.513 1107.562, 466.193 1108.959, 466.582 " />
            <path fill="none" stroke-width="3.0" stroke-linecap="butt" stroke-opacity="1.0" stroke="rgb(0, 0, 0)" stroke-linejoin="round" d=" M 1053.802, 144.278 1043.866, 143.150 1033.930, 142.023 1023.994, 140.896 1018.638, 140.288 1008.680, 139.376 998.722, 138.464 988.763, 137.551 983.074, 137.030 973.099, 136.328 963.123, 135.625 953.148, 134.923 947.189, 134.503 937.202, 134.007 927.214, 133.511 917.226, 133.014 911.062, 132.708 901.066, 132.414 891.070, 132.121 886.916, 131.999 " />
            <path fill="none" stroke-width="3.0" stroke-linecap="butt" stroke-opacity="1.0" stroke="rgb(0, 0, 0)" stroke-linejoin="round" d=" M 886.916, 131.999 876.920, 131.706 874.767, 131.643 864.767, 131.551 854.768, 131.459 844.768, 131.367 838.379, 131.308 828.380, 131.417 818.381, 131.526 808.381, 131.635 801.975, 131.704 791.980, 132.014 781.984, 132.324 771.989, 132.634 765.628, 132.831 755.641, 133.343 745.654, 133.855 735.667, 134.367 729.413, 134.688 719.438, 135.405 709.464, 136.122 699.490, 136.839 693.406, 137.277 683.449, 138.202 673.492, 139.127 663.535, 140.053 657.686, 140.596 647.751, 141.735 637.816, 142.873 627.881, 144.012 622.331, 144.647 612.424, 146.005 602.516, 147.362 592.609, 148.720 587.423, 149.431 577.550, 151.015 567.676, 152.599 557.802, 154.183 553.047, 154.945 543.214, 156.765 533.381, 158.584 523.548, 160.404 519.291, 161.192 509.506, 163.257 499.722, 165.323 489.938, 167.388 486.245, 168.168 476.518, 170.492 466.792, 172.817 457.066, 175.141 454.004, 175.873 444.348, 178.471 434.691, 181.069 425.035, 183.667 422.670, 184.303 413.096, 187.193 403.523, 190.082 393.950, 192.972 392.345, 193.456 382.871, 196.657 373.398, 199.858 363.924, 203.060 363.139, 203.325 353.786, 206.862 344.432, 210.399 335.166, 213.903 325.959, 217.804 316.751, 221.705 308.546, 225.181 299.463, 229.364 290.380, 233.547 287.802, 234.735 278.772, 239.031 269.742, 243.327 261.412, 247.291 252.599, 252.016 243.785, 256.742 236.655, 260.565 228.111, 265.761 219.567, 270.957 213.674, 274.540 205.466, 280.253 197.258, 285.965 192.616, 289.196 184.832, 295.473 177.048, 301.750 173.632, 304.505 165.884, 310.828 158.137, 317.152 151.250, 322.773 143.995, 329.655 136.740, 336.537 133.597, 339.517 127.012, 347.042 120.426, 354.567 118.388, 356.895 112.303, 364.831 106.218, 372.766 100.133, 380.702 99.719, 381.242 93.973, 389.426 88.226, 397.610 86.504, 400.063 81.790, 408.882 77.075, 417.701 76.132, 419.465 71.982, 428.563 67.832, 437.661 63.682, 446.759 62.771, 448.755 59.295, 458.132 55.819, 467.508 55.078, 469.508 53.032, 479.297 52.424, 482.204 " />
            <path fill="none" stroke-width="3.0" stroke-linecap="butt" stroke-opacity="1.0" stroke="rgb(0, 0, 0)" stroke-linejoin="round" d=" M 563.023, 468.432 572.657, 465.754 582.292, 463.077 588.331, 461.399 598.048, 459.036 607.765, 456.674 614.533, 455.029 624.319, 452.969 634.105, 450.910 641.324, 449.390 651.167, 447.623 661.009, 445.856 668.623, 444.489 678.513, 443.006 688.402, 441.523 696.354, 440.330 706.281, 439.124 716.208, 437.917 724.439, 436.917 734.395, 435.982 744.351, 435.046 752.803, 434.252 762.781, 433.584 772.759, 432.916 781.374, 432.338 791.365, 431.934 799.143, 431.619 " />
            <path fill="none" stroke-width="3.0" stroke-linecap="butt" stroke-opacity="1.0" stroke="rgb(0, 0, 0)" stroke-linejoin="round" d=" M 455.689, 514.836 464.373, 509.877 468.273, 507.650 477.193, 503.130 486.114, 498.610 487.937, 497.686 497.055, 493.578 506.172, 489.471 508.676, 488.343 517.959, 484.623 527.241, 480.903 530.403, 479.636 539.824, 476.283 549.245, 472.929 553.031, 471.581 562.569, 468.575 563.023, 468.432 572.560, 465.425 576.478, 464.190 " />
            <path fill="none" stroke-width="3.0" stroke-linecap="butt" stroke-opacity="1.0" stroke="rgb(0, 0, 0)" stroke-linejoin="round" d=" M 52.424, 482.204 50.639, 490.745 48.621, 500.539 46.603, 510.333 44.586, 520.128 43.909, 523.414 43.408, 533.401 42.906, 543.389 42.786, 545.780 43.004, 555.777 43.223, 565.775 43.441, 575.773 43.519, 579.321 " />
            <path fill="none" stroke-width="3.0" stroke-linecap="butt" stroke-opacity="1.0" stroke="rgb(0, 0, 0)" stroke-linejoin="round" d=" M 408.657, 488.087 408.254, 487.660 407.821, 487.201 403.294, 482.403 397.307, 474.393 394.500, 470.637 " />
            <path fill="none" stroke-width="3.0" stroke-linecap="butt" stroke-opacity="1.0" stroke="rgb(0, 0, 0)" stroke-linejoin="round" d=" M 85.752, 711.102 86.525, 712.593 91.680, 721.162 96.834, 729.732 100.820, 736.358 106.961, 744.250 113.103, 752.141 119.163, 759.929 125.720, 767.479 132.277, 775.030 138.833, 782.580 140.691, 784.720 147.638, 791.913 154.585, 799.106 161.531, 806.299 162.774, 807.586 170.369, 814.091 177.963, 820.596 185.558, 827.102 188.857, 829.927 196.973, 835.769 205.089, 841.611 213.206, 847.452 218.933, 851.575 227.171, 857.244 235.408, 862.913 243.629, 868.571 252.160, 873.788 260.692, 879.004 269.223, 884.221 276.568, 888.713 285.432, 893.342 294.296, 897.972 303.160, 902.602 312.024, 907.231 313.161, 907.825 322.292, 911.903 331.422, 915.981 340.553, 920.058 349.684, 924.136 353.270, 925.738 362.615, 929.297 371.960, 932.857 381.305, 936.416 390.650, 939.976 396.716, 942.286 406.233, 945.357 415.750, 948.428 425.267, 951.499 434.783, 954.570 443.276, 957.311 452.862, 960.160 462.447, 963.009 463.020, 963.179 472.674, 965.788 482.328, 968.398 491.981, 971.007 501.635, 973.616 510.075, 975.898 519.837, 978.068 529.599, 980.238 539.360, 982.407 549.122, 984.577 558.884, 986.747 559.487, 986.881 569.333, 988.630 579.179, 990.378 589.025, 992.127 598.871, 993.875 608.717, 995.624 610.928, 996.017 620.838, 997.358 630.747, 998.699 640.657, 1000.041 650.567, 1001.382 660.476, 1002.724 664.040, 1003.206 673.996, 1004.152 683.951, 1005.097 693.906, 1006.043 703.861, 1006.988 713.816, 1007.934 718.436, 1008.373 728.421, 1008.930 738.405, 1009.488 748.389, 1010.046 758.374, 1010.603 768.358, 1011.161 773.709, 1011.460 783.708, 1011.634 793.706, 1011.809 803.705, 1011.983 813.703, 1012.158 823.702, 1012.332 829.439, 1012.432 839.437, 1012.226 849.435, 1012.019 859.433, 1011.813 869.431, 1011.606 879.429, 1011.400 885.197, 1011.281 895.180, 1010.692 905.163, 1010.104 915.145, 1009.515 925.128, 1008.927 935.111, 1008.338 940.555, 1008.017 950.507, 1007.043 954.814, 1006.621 " />
            <path fill="none" stroke-width="3.0" stroke-linecap="butt" stroke-opacity="1.0" stroke="rgb(0, 0, 0)" stroke-linejoin="round" d=" M 426.290, 500.068 419.123, 495.668 411.024, 489.802 408.657, 488.087 408.383, 487.888 407.994, 487.606 405.278, 485.639 403.227, 484.154 395.675, 477.600 389.602, 472.330 " />
            <path fill="none" stroke-width="3.0" stroke-linecap="butt" stroke-opacity="1.0" stroke="rgb(0, 0, 0)" stroke-linejoin="round" d=" M 633.481, 562.405 623.621, 560.735 613.762, 559.065 605.180, 557.611 595.384, 555.599 585.589, 553.587 575.793, 551.574 571.576, 550.708 561.862, 548.334 552.148, 545.959 542.434, 543.585 539.626, 542.898 530.014, 540.138 520.403, 537.377 510.792, 534.616 509.503, 534.246 500.020, 531.070 490.538, 527.895 481.360, 524.821 472.040, 521.196 462.720, 517.571 455.689, 514.836 455.328, 514.696 446.214, 510.581 437.100, 506.467 436.524, 506.207 " />
            <path fill="none" stroke-width="3.0" stroke-linecap="butt" stroke-opacity="1.0" stroke="rgb(0, 0, 0)" stroke-linejoin="round" d=" M 1027.906, 561.578 1017.999, 562.937 1008.092, 564.297 998.185, 565.657 994.417, 566.174 984.472, 567.223 974.528, 568.272 964.583, 569.321 954.638, 570.370 954.063, 570.430 944.091, 571.177 934.119, 571.924 924.147, 572.671 914.175, 573.417 912.884, 573.514 902.894, 573.965 892.905, 574.416 882.915, 574.866 872.925, 575.317 871.156, 575.397 861.158, 575.555 851.159, 575.713 841.160, 575.871 831.161, 576.029 829.163, 576.061 819.164, 575.927 809.165, 575.794 799.166, 575.660 789.167, 575.526 787.192, 575.500 777.202, 575.073 767.211, 574.646 757.220, 574.219 747.229, 573.792 745.531, 573.719 735.558, 572.995 725.584, 572.270 715.610, 571.546 705.637, 570.821 704.464, 570.736 694.517, 569.707 684.570, 568.678 674.623, 567.649 664.676, 566.620 664.264, 566.577 654.354, 565.234 644.445, 563.891 634.535, 562.548 633.481, 562.405 625.196, 561.282 " />
            <path fill="none" stroke-width="3.0" stroke-linecap="butt" stroke-opacity="1.0" stroke="rgb(0, 0, 0)" stroke-linejoin="round" d=" M 1033.681, 560.785 1030.167, 561.267 1027.906, 561.578 " />
            <path fill="none" stroke-width="3.0" stroke-linecap="butt" stroke-opacity="1.0" stroke="rgb(0, 0, 0)" stroke-linejoin="round" d=" M 1179.821, 523.994 1170.333, 527.152 1160.845, 530.311 1151.325, 533.481 1141.712, 536.234 1132.099, 538.988 1122.485, 541.741 1120.880, 542.201 1111.166, 544.576 1101.453, 546.951 1091.739, 549.326 1088.641, 550.084 1078.847, 552.104 1069.053, 554.123 1059.259, 556.143 1054.782, 557.066 1044.925, 558.749 1035.067, 560.431 1030.167, 561.267 " />
            <path fill="none" stroke-width="3.0" stroke-linecap="butt" stroke-opacity="1.0" stroke="rgb(0, 0, 0)" stroke-linejoin="round" d=" M 1216.093, 956.107 1225.609, 953.036 1235.126, 949.965 1244.643, 946.894 1254.160, 943.823 1263.069, 940.949 1272.418, 937.399 1281.767, 933.850 1291.116, 930.301 1300.465, 926.751 1306.978, 924.279 1316.119, 920.223 1325.259, 916.167 1334.400, 912.112 1343.541, 908.056 1347.593, 906.258 1356.475, 901.665 1365.358, 897.071 1374.240, 892.478 1383.144, 887.873 " />
            <path fill="none" stroke-width="3.0" stroke-linecap="butt" stroke-opacity="1.0" stroke="rgb(0, 0, 0)" stroke-linejoin="round" d=" M 1274.749, 471.322 1267.098, 477.761 1265.439, 479.156 " />
            <path fill="none" stroke-width="3.0" stroke-linecap="butt" stroke-opacity="1.0" stroke="rgb(0, 0, 0)" stroke-linejoin="round" d=" M 1271.268, 469.640 1265.096, 477.508 1262.692, 480.571 " />
            <path fill="none" stroke-width="3.0" stroke-linecap="butt" stroke-opacity="1.0" stroke="rgb(0, 0, 0)" stroke-linejoin="round" d=" M 1264.339, 473.313 1260.843, 481.518 " />
            <path fill="none" stroke-width="3.0" stroke-linecap="butt" stroke-opacity="1.0" stroke="rgb(0, 0, 0)" stroke-linejoin="round" d=" M 1370.183, 257.941 1370.076, 257.394 1370.359, 256.569 " />
            <path fill="none" stroke-width="3.0" stroke-linecap="butt" stroke-opacity="1.0" stroke="rgb(0, 0, 0)" stroke-linejoin="round" d=" M 1370.822, 255.224 1371.017, 254.657 1371.666, 254.024 " />
            <path fill="none" stroke-width="3.0" stroke-linecap="butt" stroke-opacity="1.0" stroke="rgb(0, 0, 0)" stroke-linejoin="round" d=" M 1372.723, 252.992 1373.169, 252.557 1374.007, 252.286 " />
            <path fill="none" stroke-width="3.0" stroke-linecap="butt" stroke-opacity="1.0" stroke="rgb(0, 0, 0)" stroke-linejoin="round" d=" M 1378.619, 252.203 1376.672, 250.279 1374.673, 248.367 1372.625, 246.466 1370.526, 244.577 1368.378, 242.700 1366.180, 240.836 1363.933, 238.983 1361.638, 237.143 1359.293, 235.316 1356.901, 233.502 1354.461, 231.700 1351.973, 229.911 1349.438, 228.135 1346.856, 226.372 1344.227, 224.623 1341.553, 222.887 1338.832, 221.165 1336.066, 219.457 1333.254, 217.762 1330.397, 216.081 1327.496, 214.414 1324.551, 212.761 1321.561, 211.123 1318.528, 209.499 1315.452, 207.889 1312.333, 206.294 1309.171, 204.713 1305.967, 203.147 1302.721, 201.596 1299.433, 200.060 1296.105, 198.539 1292.735, 197.034 1289.325, 195.543 1286.760, 194.446 1285.874, 194.068 1282.384, 192.608 1278.855, 191.164 1275.286, 189.735 1271.678, 188.322 1268.032, 186.924 1264.348, 185.543 1260.626, 184.177 1256.867, 182.828 1253.070, 181.495 1249.237, 180.177 1245.368, 178.876 1241.463, 177.592 1237.521, 176.323 1233.545, 175.072 1229.534, 173.836 1225.488, 172.618 1221.407, 171.416 1217.293, 170.231 1213.146, 169.062 1208.965, 167.911 1204.751, 166.777 1200.504, 165.659 1196.226, 164.559 1191.915, 163.476 1187.573, 162.410 1183.200, 161.362 1178.797, 160.331 1174.362, 159.317 1169.898, 158.321 1165.403, 157.342 1160.880, 156.381 1156.327, 155.438 1151.745, 154.512 1147.135, 153.604 1142.497, 152.714 1137.832, 151.842 1133.138, 150.988 1128.418, 150.151 1123.671, 149.333 1118.898, 148.533 1114.098, 147.751 1109.273, 146.988 1104.423, 146.242 1099.547, 145.515 1094.647, 144.807 1089.722, 144.116 1084.773, 143.445 1079.801, 142.791 1074.805, 142.157 1069.786, 141.541 1064.744, 140.943 1059.680, 140.365 1054.594, 139.805 1049.486, 139.264 1044.356, 138.741 1039.205, 138.238 1034.034, 137.754 1028.842, 137.289 1023.630, 136.842 1018.398, 136.415 1013.147, 136.007 1007.877, 135.618 1002.587, 135.248 997.279, 134.898 991.953, 134.567 986.609, 134.255 981.248, 133.963 975.869, 133.690 970.473, 133.437 965.061, 133.203 959.632, 132.989 954.187, 132.794 948.727, 132.619 943.251, 132.464 937.760, 132.329 932.254, 132.213 926.734, 132.117 926.101, 132.107 920.586, 132.031 915.058, 131.975 909.516, 131.940 903.961, 131.924 898.393, 131.928 892.813, 131.952 887.220, 131.996 886.916, 131.999 " />
            <path fill="none" stroke-width="3.0" stroke-linecap="butt" stroke-opacity="1.0" stroke="rgb(0, 0, 0)" stroke-linejoin="round" d=" M 1375.375, 251.845 1375.952, 251.659 1376.756, 251.823 " />
            <path fill="none" stroke-width="3.0" stroke-linecap="butt" stroke-opacity="1.0" stroke="rgb(0, 0, 0)" stroke-linejoin="round" d=" M 1378.067, 252.090 1378.619, 252.203 1379.173, 252.758 " />
            <path fill="none" stroke-width="3.0" stroke-linecap="butt" stroke-opacity="1.0" stroke="rgb(0, 0, 0)" stroke-linejoin="round" d=" M 52.424, 482.204 51.738, 483.928 50.220, 487.945 48.777, 491.979 47.408, 496.032 46.115, 500.101 44.898, 504.187 43.758, 508.289 42.695, 512.408 41.711, 516.543 40.806, 520.693 39.981, 524.859 39.236, 529.039 38.572, 533.234 37.990, 537.444 37.491, 541.667 37.074, 545.903 36.742, 550.153 36.493, 554.416 36.330, 558.691 36.252, 562.977 36.261, 567.276 36.357, 571.585 36.540, 575.906 36.811, 580.236 37.171, 584.577 37.620, 588.926 38.159, 593.285 38.504, 596.050 39.134, 600.421 39.855, 604.800 40.667, 609.187 41.572, 613.580 42.569, 617.981 43.659, 622.387 44.842, 626.799 46.119, 631.216 47.491, 635.637 48.958, 640.062 50.520, 644.491 52.178, 648.922 53.931, 653.356 55.782, 657.792 57.729, 662.228 59.774, 666.666 61.916, 671.103 64.156, 675.540 66.495, 679.975 68.931, 684.409 71.467, 688.840 74.102, 693.268 76.835, 697.692 79.669, 702.113 82.602, 706.528 85.634, 710.937 85.752, 711.102 88.767, 715.340 92.000, 719.737 95.332, 724.125 98.765, 728.506 102.299, 732.877 105.932, 737.239 109.666, 741.591 113.500, 745.931 117.435, 750.260 121.469, 754.576 125.604, 758.879 129.839, 763.168 134.173, 767.443 136.057, 769.296 140.481, 773.546 145.004, 777.780 149.625, 781.996 154.346, 786.196 159.164, 790.376 164.081, 794.538 169.095, 798.680 174.206, 802.802 179.414, 806.902 184.718, 810.981 190.118, 815.036 195.614, 819.068 201.205, 823.076 206.890, 827.059 212.669, 831.016 218.541, 834.947 224.505, 838.850 230.562, 842.725 236.710, 846.572 242.948, 850.389 249.276, 854.176 255.692, 857.932 262.197, 861.657 268.790, 865.348 275.468, 869.007 282.232, 872.632 289.081, 876.222 296.013, 879.777 303.027, 883.296 310.124, 886.778 317.300, 890.223 324.556, 893.629 331.891, 896.997 339.302, 900.325 346.790, 903.613 354.352, 906.860 361.988, 910.065 369.696, 913.228 377.475, 916.349 385.324, 919.426 393.241, 922.458 401.225, 925.447 409.274, 928.389 417.388, 931.286 425.565, 934.136 433.802, 936.939 442.100, 939.695 450.456, 942.402 458.868, 945.061 467.336, 947.670 475.857, 950.229 484.430, 952.738 493.054, 955.196 501.726, 957.603 510.445, 959.958 519.210, 962.261 528.018, 964.511 536.869, 966.709 545.759, 968.852 554.688, 970.942 563.654, 972.978 572.655, 974.959 581.689, 976.885 590.754, 978.755 599.849, 980.570 608.972, 982.329 618.120, 984.032 627.293, 985.678 636.488, 987.268 645.703, 988.801 654.937, 990.276 664.188, 991.694 673.453, 993.055 682.731, 994.358 692.020, 995.603 701.318, 996.789 710.623, 997.918 719.934, 998.989 729.248, 1000.001 738.564, 1000.955 747.880, 1001.850 757.193, 1002.687 766.503, 1003.466 775.806, 1004.186 785.102, 1004.848 794.388, 1005.451 803.662, 1005.996 812.924, 1006.483 822.170, 1006.912 831.399, 1007.282 840.609, 1007.595 849.799, 1007.850 858.966, 1008.047 868.110, 1008.187 877.227, 1008.269 886.317, 1008.295 895.377, 1008.264 904.406, 1008.176 913.402, 1008.032 922.364, 1007.832 931.290, 1007.576 940.178, 1007.264 949.027, 1006.898 954.814, 1006.621 957.834, 1006.476 966.599, 1006.001 975.320, 1005.471 983.995, 1004.887 992.622, 1004.250 1001.201, 1003.560 1009.730, 1002.818 1018.207, 1002.023 1026.631, 1001.177 1035.001, 1000.279 1043.314, 999.331 1051.571, 998.333 1059.769, 997.284 1067.907, 996.187 1075.983, 995.040 1083.998, 993.845 1091.949, 992.603 1099.835, 991.313 1107.655, 989.976 1115.408, 988.594 1123.093, 987.166 1130.708, 985.692 1138.253, 984.174 1145.727, 982.613 1153.128, 981.008 1160.456, 979.360 1167.710, 977.671 1174.888, 975.939 1181.991, 974.167 1189.016, 972.355 1195.964, 970.503 1202.833, 968.612 1209.623, 966.683 1216.333, 964.716 1222.962, 962.712 1229.510, 960.672 1235.975, 958.595 1242.359, 956.484 1248.658, 954.338 1254.874, 952.158 1261.005, 949.945 1267.051, 947.700 1273.012, 945.423 1278.887, 943.115 1284.676, 940.776 1290.378, 938.407 1295.993, 936.009 1301.520, 933.582 1306.960, 931.128 1312.312, 928.647 1317.575, 926.139 1322.750, 923.605 1327.836, 921.045 1332.833, 918.462 1337.741, 915.854 1342.560, 913.223 1347.289, 910.569 1351.929, 907.894 1356.479, 905.197 1360.940, 902.480 1365.311, 899.742 1367.600, 898.279 1371.893, 895.515 1376.096, 892.732 1380.208, 889.930 1383.144, 887.873 " />
            <path fill="none" stroke-width="3.0" stroke-linecap="butt" stroke-opacity="1.0" stroke="rgb(0, 0, 0)" stroke-linejoin="round" d=" M 470.549, 483.589 470.819, 483.459 472.615, 482.606 474.439, 481.758 476.292, 480.914 478.172, 480.075 480.081, 479.241 482.017, 478.412 483.980, 477.587 485.972, 476.767 487.990, 475.953 490.035, 475.143 492.108, 474.338 494.207, 473.539 496.332, 472.745 498.484, 471.956 500.663, 471.173 502.868, 470.395 505.098, 469.623 507.355, 468.856 509.637, 468.096 511.945, 467.341 514.278, 466.591 516.637, 465.848 519.021, 465.111 521.429, 464.380 523.863, 463.655 526.321, 462.936 528.803, 462.223 531.310, 461.517 533.841, 460.818 536.396, 460.124 538.975, 459.438 541.578, 458.758 544.204, 458.084 546.854, 457.418 549.527, 456.758 552.223, 456.105 554.943, 455.459 557.685, 454.821 560.449, 454.189 563.236, 453.565 566.046, 452.948 568.878, 452.338 571.731, 451.735 574.607, 451.140 577.504, 450.553 580.424, 449.973 583.364, 449.401 586.326, 448.836 589.309, 448.280 592.312, 447.731 595.337, 447.190 598.382, 446.657 601.448, 446.132 604.534, 445.615 607.641, 445.107 610.767, 444.607 613.914, 444.115 617.080, 443.631 620.265, 443.156 623.470, 442.690 626.695, 442.232 629.938, 441.783 633.201, 441.342 636.482, 440.910 639.781, 440.487 643.100, 440.074 646.436, 439.669 649.791, 439.273 653.164, 438.886 656.555, 438.508 659.963, 438.140 663.389, 437.781 666.832, 437.431 670.293, 437.091 673.770, 436.760 677.264, 436.439 680.776, 436.128 684.303, 435.826 687.847, 435.534 691.408, 435.252 694.984, 434.979 698.576, 434.717 702.184, 434.465 705.808, 434.223 709.447, 433.991 713.102, 433.769 716.771, 433.557 720.455, 433.356 724.154, 433.165 727.868, 432.985 731.596, 432.815 735.339, 432.656 739.095, 432.507 742.866, 432.370 746.650, 432.243 750.448, 432.126 754.259, 432.021 758.083, 431.927 761.921, 431.844 765.771, 431.772 769.634, 431.711 773.510, 431.661 777.398, 431.623 781.298, 431.596 785.210, 431.580 789.134, 431.576 793.070, 431.584 797.017, 431.603 799.143, 431.619 800.976, 431.634 804.946, 431.676 808.926, 431.730 812.918, 431.797 816.920, 431.875 820.932, 431.965 824.955, 432.067 828.987, 432.181 833.030, 432.308 837.082, 432.446 841.144, 432.597 845.215, 432.761 849.295, 432.936 853.384, 433.125 857.481, 433.325 861.588, 433.539 865.702, 433.765 869.825, 434.004 873.955, 434.255 878.094, 434.520 882.240, 434.797 886.393, 435.087 890.553, 435.391 894.721, 435.707 898.895, 436.037 903.076, 436.380 907.263, 436.736 911.456, 437.106 915.655, 437.489 919.860, 437.885 924.070, 438.295 928.286, 438.718 932.506, 439.155 936.732, 439.606 940.962, 440.071 945.197, 440.549 949.435, 441.041 953.678, 441.547 957.925, 442.068 962.175, 442.602 966.429, 443.150 970.686, 443.713 974.945, 444.290 979.207, 444.881 983.472, 445.486 987.739, 446.106 992.008, 446.740 996.278, 447.389 1000.550, 448.052 1004.823, 448.730 1009.098, 449.423 1013.373, 450.130 1017.648, 450.852 1021.924, 451.589 1026.200, 452.341 1030.475, 453.108 1034.751, 453.890 1039.025, 454.687 1043.299, 455.499 1047.571, 456.326 1051.842, 457.168 1056.111, 458.026 1060.378, 458.899 1064.642, 459.788 1068.904, 460.691 1073.164, 461.611 1077.420, 462.546 1081.673, 463.496 1085.922, 464.462 1090.167, 465.444 1094.408, 466.441 1098.645, 467.455 1102.876, 468.484 1107.103, 469.529 1111.325, 470.590 1115.540, 471.666 1119.750, 472.759 1123.954, 473.868 1128.151, 474.993 1132.341, 476.134 1136.524, 477.292 1140.699, 478.465 1144.867, 479.655 1149.027, 480.861 1152.062, 481.755 " />
            <path fill="none" stroke-width="3.0" stroke-linecap="butt" stroke-opacity="1.0" stroke="rgb(0, 0, 0)" stroke-linejoin="round" d=" M 436.524, 506.207 437.087, 505.661 438.085, 504.727 439.116, 503.796 440.178, 502.867 441.273, 501.940 442.399, 501.016 443.556, 500.095 444.745, 499.176 445.965, 498.260 447.216, 497.347 448.497, 496.438 449.810, 495.531 451.153, 494.627 452.526, 493.727 453.930, 492.829 455.364, 491.936 456.828, 491.046 458.322, 490.159 459.845, 489.276 461.398, 488.397 462.981, 487.521 464.592, 486.649 466.233, 485.782 467.903, 484.918 469.601, 484.059 470.549, 483.589 " />
            <path fill="none" stroke-width="3.0" stroke-linecap="butt" stroke-opacity="1.0" stroke="rgb(0, 0, 0)" stroke-linejoin="round" d=" M 1215.110, 502.743 1212.145, 503.996 1207.778, 505.814 1205.874, 506.594 1203.375, 507.617 1198.938, 509.406 1194.465, 511.180 1189.959, 512.940 1185.420, 514.685 1180.847, 516.416 1176.243, 518.131 1171.608, 519.831 1166.942, 521.516 1162.246, 523.185 1157.521, 524.838 1152.767, 526.475 1147.985, 528.096 1143.176, 529.702 1138.340, 531.290 1133.479, 532.863 1128.592, 534.418 1123.681, 535.957 1118.746, 537.479 1113.788, 538.984 1108.807, 540.472 1103.805, 541.943 1098.782, 543.396 1093.738, 544.832 1088.675, 546.251 1083.594, 547.651 1078.494, 549.034 1073.377, 550.399 1068.243, 551.746 1063.093, 553.075 1057.928, 554.385 1052.749, 555.678 1047.556, 556.952 1042.350, 558.207 1037.131, 559.444 1031.901, 560.663 1027.906, 561.578 " />
            <path fill="none" stroke-width="3.0" stroke-linecap="butt" stroke-opacity="1.0" stroke="rgb(0, 0, 0)" stroke-linejoin="round" d=" M 1228.766, 496.803 1225.025, 498.462 1220.769, 500.321 1216.475, 502.165 1215.110, 502.743 " />
            <path fill="none" stroke-width="3.0" stroke-linecap="butt" stroke-opacity="1.0" stroke="rgb(0, 0, 0)" stroke-linejoin="round" d=" M 1320.626, 446.137 1317.596, 448.229 1316.593, 448.908 1314.453, 450.356 1311.261, 452.475 1308.018, 454.586 1304.727, 456.688 1301.386, 458.781 1297.997, 460.865 1294.560, 462.941 1291.075, 465.006 1287.543, 467.062 1283.965, 469.109 1280.340, 471.145 1276.670, 473.170 1272.954, 475.185 1269.194, 477.189 1266.905, 478.389 1265.439, 479.156 1265.389, 479.183 1264.127, 479.833 1262.692, 480.571 1261.541, 481.165 1260.995, 481.441 1260.843, 481.518 1257.649, 483.135 1253.715, 485.094 1249.738, 487.041 1245.720, 488.976 1241.661, 490.899 1237.561, 492.809 1233.422, 494.706 1229.243, 496.591 1228.766, 496.803 " />
            <path fill="none" stroke-width="3.0" stroke-linecap="butt" stroke-opacity="1.0" stroke="rgb(0, 0, 0)" stroke-linejoin="round" d=" M 1330.211, 439.229 1329.657, 439.644 1326.719, 441.801 1323.729, 443.951 1320.688, 446.094 1320.626, 446.137 " />
            <path fill="none" stroke-width="3.0" stroke-linecap="butt" stroke-opacity="1.0" stroke="rgb(0, 0, 0)" stroke-linejoin="round" d=" M 1369.613, 404.115 1369.392, 404.362 1367.320, 406.600 1365.193, 408.834 1363.010, 411.066 1360.771, 413.293 1358.477, 415.517 1356.128, 417.736 1353.724, 419.951 1351.265, 422.161 1348.751, 424.367 1346.183, 426.567 1343.562, 428.761 1340.887, 430.950 1338.159, 433.133 1335.377, 435.310 1332.543, 437.481 1330.211, 439.229 " />
            <path fill="none" stroke-width="3.0" stroke-linecap="butt" stroke-opacity="1.0" stroke="rgb(0, 0, 0)" stroke-linejoin="round" d=" M 1371.406, 402.121 1369.613, 404.115 " />
            <path fill="none" stroke-width="3.0" stroke-linecap="butt" stroke-opacity="1.0" stroke="rgb(0, 0, 0)" stroke-linejoin="round" d=" M 1383.440, 386.424 1381.973, 388.547 1380.360, 390.796 1378.691, 393.044 1376.964, 395.290 1375.181, 397.535 1373.341, 399.777 1371.445, 402.017 1369.613, 404.115 " />
            <path fill="none" stroke-width="3.0" stroke-linecap="butt" stroke-opacity="1.0" stroke="rgb(0, 0, 0)" stroke-linejoin="round" d=" M 1389.652, 376.440 1389.174, 377.290 1387.849, 379.542 1386.466, 381.794 1385.026, 384.046 1383.528, 386.297 1383.440, 386.424 " />
            <path fill="none" stroke-width="3.0" stroke-linecap="butt" stroke-opacity="1.0" stroke="rgb(0, 0, 0)" stroke-linejoin="round" d=" M 1402.514, 341.312 1402.498, 341.419 1402.100, 343.642 1401.644, 345.870 1401.130, 348.100 1400.559, 350.333 1399.929, 352.570 1399.241, 354.808 1398.496, 357.050 1397.692, 359.293 1396.830, 361.538 1395.910, 363.785 1394.932, 366.034 1394.181, 367.665 1393.896, 368.283 1392.802, 370.534 1391.651, 372.785 1390.441, 375.037 1389.652, 376.440 " />
            <path fill="none" stroke-width="3.0" stroke-linecap="butt" stroke-opacity="1.0" stroke="rgb(0, 0, 0)" stroke-linejoin="round" d=" M 1402.838, 339.199 1402.514, 341.312 " />
            <path fill="none" stroke-width="3.0" stroke-linecap="butt" stroke-opacity="1.0" stroke="rgb(0, 0, 0)" stroke-linejoin="round" d=" M 1414.418, 343.021 1414.744, 340.751 1415.012, 338.486 1415.220, 336.224 1415.370, 333.968 1415.461, 331.716 1415.493, 329.469 1415.467, 327.228 1415.382, 324.992 1415.239, 322.762 1415.038, 320.537 1414.779, 318.319 1414.461, 316.107 1414.087, 313.902 1413.654, 311.703 1413.164, 309.512 1412.617, 307.327 1412.013, 305.150 1411.351, 302.980 1410.633, 300.818 1409.859, 298.664 1409.028, 296.518 1408.141, 294.380 1407.199, 292.250 1406.033, 289.719 1405.038, 287.607 1403.988, 285.502 1402.883, 283.407 1401.722, 281.321 1400.507, 279.244 1399.238, 277.177 1397.915, 275.119 1396.537, 273.071 1395.106, 271.034 1393.621, 269.006 1392.083, 266.988 1390.492, 264.981 1388.848, 262.985 1387.152, 260.999 1385.404, 259.024 1383.604, 257.060 1381.753, 255.108 1379.850, 253.167 " />
            <path fill="none" stroke-width="3.0" stroke-linecap="butt" stroke-opacity="1.0" stroke="rgb(0, 0, 0)" stroke-linejoin="round" d=" M 1403.201, 333.241 1403.091, 335.446 1402.923, 337.656 1402.698, 339.870 1402.514, 341.312 " />
            <path fill="none" stroke-width="3.0" stroke-linecap="butt" stroke-opacity="1.0" stroke="rgb(0, 0, 0)" stroke-linejoin="round" d=" M 1395.530, 294.648 1396.391, 296.642 1397.239, 298.739 1398.031, 300.845 1398.769, 302.958 1399.451, 305.078 1400.078, 307.206 1400.648, 309.341 1401.163, 311.483 1401.622, 313.632 1402.024, 315.787 1402.370, 317.949 " />
            <path fill="none" stroke-width="3.0" stroke-linecap="butt" stroke-opacity="1.0" stroke="rgb(0, 0, 0)" stroke-linejoin="round" d=" M 1394.531, 292.471 1395.488, 294.552 1395.530, 294.648 " />
            <path fill="none" stroke-width="3.0" stroke-linecap="butt" stroke-opacity="1.0" stroke="rgb(0, 0, 0)" stroke-linejoin="round" d=" M 1370.822, 255.224 1370.467, 255.729 1370.359, 256.569 " />
            <path fill="none" stroke-width="3.0" stroke-linecap="butt" stroke-opacity="1.0" stroke="rgb(0, 0, 0)" stroke-linejoin="round" d=" M 1372.723, 252.992 1372.182, 253.289 1371.666, 254.024 " />
            <path fill="none" stroke-width="3.0" stroke-linecap="butt" stroke-opacity="1.0" stroke="rgb(0, 0, 0)" stroke-linejoin="round" d=" M 1375.375, 251.845 1374.794, 251.854 1374.007, 252.286 " />
            <path fill="none" stroke-width="3.0" stroke-linecap="butt" stroke-opacity="1.0" stroke="rgb(0, 0, 0)" stroke-linejoin="round" d=" M 1378.067, 252.090 1377.601, 251.810 1376.756, 251.823 " />
            <path fill="none" stroke-width="3.0" stroke-linecap="butt" stroke-opacity="1.0" stroke="rgb(0, 0, 0)" stroke-linejoin="round" d=" M 1379.850, 253.167 1379.173, 252.758 " />
            <path fill="none" stroke-width="3.0" stroke-linecap="butt" stroke-opacity="1.0" stroke="rgb(0, 0, 0)" stroke-linejoin="round" d=" M 1370.183, 257.941 1370.076, 257.394 1370.359, 256.569 " />
            <path fill="none" stroke-width="3.0" stroke-linecap="butt" stroke-opacity="1.0" stroke="rgb(0, 0, 0)" stroke-linejoin="round" d=" M 1370.822, 255.224 1371.017, 254.657 1371.666, 254.024 " />
            <path fill="none" stroke-width="3.0" stroke-linecap="butt" stroke-opacity="1.0" stroke="rgb(0, 0, 0)" stroke-linejoin="round" d=" M 1372.723, 252.992 1373.169, 252.557 1374.007, 252.286 " />
            <path fill="none" stroke-width="3.0" stroke-linecap="butt" stroke-opacity="1.0" stroke="rgb(0, 0, 0)" stroke-linejoin="round" d=" M 1378.619, 252.203 1376.672, 250.279 1374.673, 248.367 1372.625, 246.466 1370.526, 244.577 1368.378, 242.700 1366.180, 240.836 1363.933, 238.983 1361.638, 237.143 1359.293, 235.316 1356.901, 233.502 1354.461, 231.700 1351.973, 229.911 1349.438, 228.135 1346.856, 226.372 1344.227, 224.623 1341.553, 222.887 1338.832, 221.165 1336.066, 219.457 1333.254, 217.762 1330.397, 216.081 1327.496, 214.414 1324.551, 212.761 1321.561, 211.123 1318.528, 209.499 1315.452, 207.889 1312.333, 206.294 1309.171, 204.713 1305.967, 203.147 1302.721, 201.596 1299.433, 200.060 1296.105, 198.539 1292.735, 197.034 1289.325, 195.543 1286.760, 194.446 1285.874, 194.068 1282.384, 192.608 1278.855, 191.164 1275.286, 189.735 1271.678, 188.322 1268.032, 186.924 1264.348, 185.543 1260.626, 184.177 1256.867, 182.828 1253.070, 181.495 1249.237, 180.177 1245.368, 178.876 1241.463, 177.592 1237.521, 176.323 1233.545, 175.072 1229.534, 173.836 1225.488, 172.618 1221.407, 171.416 1217.293, 170.231 1213.146, 169.062 1208.965, 167.911 1204.751, 166.777 1200.504, 165.659 1196.226, 164.559 1191.915, 163.476 1187.573, 162.410 1183.200, 161.362 1178.797, 160.331 1174.362, 159.317 1169.898, 158.321 1165.403, 157.342 1160.880, 156.381 1156.327, 155.438 1151.745, 154.512 1147.135, 153.604 1142.497, 152.714 1137.832, 151.842 1133.138, 150.988 1128.418, 150.151 1123.671, 149.333 1118.898, 148.533 1114.098, 147.751 1109.273, 146.988 1104.423, 146.242 1099.547, 145.515 1094.647, 144.807 1089.722, 144.116 1084.773, 143.445 1079.801, 142.791 1074.805, 142.157 1069.786, 141.541 1064.744, 140.943 1059.680, 140.365 1054.594, 139.805 1049.486, 139.264 1044.356, 138.741 1039.205, 138.238 1034.034, 137.754 1028.842, 137.289 1023.630, 136.842 1018.398, 136.415 1013.147, 136.007 1007.877, 135.618 1002.587, 135.248 997.279, 134.898 991.953, 134.567 986.609, 134.255 981.248, 133.963 975.869, 133.690 970.473, 133.437 965.061, 133.203 959.632, 132.989 954.187, 132.794 948.727, 132.619 943.251, 132.464 937.760, 132.329 932.254, 132.213 926.734, 132.117 926.101, 132.107 920.586, 132.031 915.058, 131.975 909.516, 131.940 903.961, 131.924 898.393, 131.928 892.813, 131.952 887.220, 131.996 886.916, 131.999 " />
            <path fill="none" stroke-width="3.0" stroke-linecap="butt" stroke-opacity="1.0" stroke="rgb(0, 0, 0)" stroke-linejoin="round" d=" M 1375.375, 251.845 1375.952, 251.659 1376.756, 251.823 " />
            <path fill="none" stroke-width="3.0" stroke-linecap="butt" stroke-opacity="1.0" stroke="rgb(0, 0, 0)" stroke-linejoin="round" d=" M 1378.067, 252.090 1378.619, 252.203 1379.173, 252.758 " />
            <path fill="none" stroke-width="3.0" stroke-linecap="butt" stroke-opacity="1.0" stroke="rgb(0, 0, 0)" stroke-linejoin="round" d=" M 52.424, 482.204 51.738, 483.928 50.220, 487.945 48.777, 491.979 47.408, 496.032 46.115, 500.101 44.898, 504.187 43.758, 508.289 42.695, 512.408 41.711, 516.543 40.806, 520.693 39.981, 524.859 39.236, 529.039 38.572, 533.234 37.990, 537.444 37.491, 541.667 37.074, 545.903 36.742, 550.153 36.493, 554.416 36.330, 558.691 36.252, 562.977 36.261, 567.276 36.357, 571.585 36.540, 575.906 36.811, 580.236 37.171, 584.577 37.620, 588.926 38.159, 593.285 38.504, 596.050 39.134, 600.421 39.855, 604.800 40.667, 609.187 41.572, 613.580 42.569, 617.981 43.659, 622.387 44.842, 626.799 46.119, 631.216 47.491, 635.637 48.958, 640.062 50.520, 644.491 52.178, 648.922 53.931, 653.356 55.782, 657.792 57.729, 662.228 59.774, 666.666 61.916, 671.103 64.156, 675.540 66.495, 679.975 68.931, 684.409 71.467, 688.840 74.102, 693.268 76.835, 697.692 79.669, 702.113 82.602, 706.528 85.634, 710.937 85.752, 711.102 88.767, 715.340 92.000, 719.737 95.332, 724.125 98.765, 728.506 102.299, 732.877 105.932, 737.239 109.666, 741.591 113.500, 745.931 117.435, 750.260 121.469, 754.576 125.604, 758.879 129.839, 763.168 134.173, 767.443 136.057, 769.296 140.481, 773.546 145.004, 777.780 149.625, 781.996 154.346, 786.196 159.164, 790.376 164.081, 794.538 169.095, 798.680 174.206, 802.802 179.414, 806.902 184.718, 810.981 190.118, 815.036 195.614, 819.068 201.205, 823.076 206.890, 827.059 212.669, 831.016 218.541, 834.947 224.505, 838.850 230.562, 842.725 236.710, 846.572 242.948, 850.389 249.276, 854.176 255.692, 857.932 262.197, 861.657 268.790, 865.348 275.468, 869.007 282.232, 872.632 289.081, 876.222 296.013, 879.777 303.027, 883.296 310.124, 886.778 317.300, 890.223 324.556, 893.629 331.891, 896.997 339.302, 900.325 346.790, 903.613 354.352, 906.860 361.988, 910.065 369.696, 913.228 377.475, 916.349 385.324, 919.426 393.241, 922.458 401.225, 925.447 409.274, 928.389 417.388, 931.286 425.565, 934.136 433.802, 936.939 442.100, 939.695 450.456, 942.402 458.868, 945.061 467.336, 947.670 475.857, 950.229 484.430, 952.738 493.054, 955.196 501.726, 957.603 510.445, 959.958 519.210, 962.261 528.018, 964.511 536.869, 966.709 545.759, 968.852 554.688, 970.942 563.654, 972.978 572.655, 974.959 581.689, 976.885 590.754, 978.755 599.849, 980.570 608.972, 982.329 618.120, 984.032 627.293, 985.678 636.488, 987.268 645.703, 988.801 654.937, 990.276 664.188, 991.694 673.453, 993.055 682.731, 994.358 692.020, 995.603 701.318, 996.789 710.623, 997.918 719.934, 998.989 729.248, 1000.001 738.564, 1000.955 747.880, 1001.850 757.193, 1002.687 766.503, 1003.466 775.806, 1004.186 785.102, 1004.848 794.388, 1005.451 803.662, 1005.996 812.924, 1006.483 822.170, 1006.912 831.399, 1007.282 840.609, 1007.595 849.799, 1007.850 858.966, 1008.047 868.110, 1008.187 877.227, 1008.269 886.317, 1008.295 895.377, 1008.264 904.406, 1008.176 913.402, 1008.032 922.364, 1007.832 931.290, 1007.576 940.178, 1007.264 949.027, 1006.898 954.814, 1006.621 957.834, 1006.476 966.599, 1006.001 975.320, 1005.471 983.995, 1004.887 992.622, 1004.250 1001.201, 1003.560 1009.730, 1002.818 1018.207, 1002.023 1026.631, 1001.177 1035.001, 1000.279 1043.314, 999.331 1051.571, 998.333 1059.769, 997.284 1067.907, 996.187 1075.983, 995.040 1083.998, 993.845 1091.949, 992.603 1099.835, 991.313 1107.655, 989.976 1115.408, 988.594 1123.093, 987.166 1130.708, 985.692 1138.253, 984.174 1145.727, 982.613 1153.128, 981.008 1160.456, 979.360 1167.710, 977.671 1174.888, 975.939 1181.991, 974.167 1189.016, 972.355 1195.964, 970.503 1202.833, 968.612 1209.623, 966.683 1216.333, 964.716 1222.962, 962.712 1229.510, 960.672 1235.975, 958.595 1242.359, 956.484 1248.658, 954.338 1254.874, 952.158 1261.005, 949.945 1267.051, 947.700 1273.012, 945.423 1278.887, 943.115 1284.676, 940.776 1290.378, 938.407 1295.993, 936.009 1301.520, 933.582 1306.960, 931.128 1312.312, 928.647 1317.575, 926.139 1322.750, 923.605 1327.836, 921.045 1332.833, 918.462 1337.741, 915.854 1342.560, 913.223 1347.289, 910.569 1351.929, 907.894 1356.479, 905.197 1360.940, 902.480 1365.311, 899.742 1367.600, 898.279 1371.893, 895.515 1376.096, 892.732 1380.208, 889.930 1383.144, 887.873 " />
            <path fill="none" stroke-width="3.0" stroke-linecap="butt" stroke-opacity="1.0" stroke="rgb(0, 0, 0)" stroke-linejoin="round" d=" M 470.549, 483.589 470.819, 483.459 472.615, 482.606 474.439, 481.758 476.292, 480.914 478.172, 480.075 480.081, 479.241 482.017, 478.412 483.980, 477.587 485.972, 476.767 487.990, 475.953 490.035, 475.143 492.108, 474.338 494.207, 473.539 496.332, 472.745 498.484, 471.956 500.663, 471.173 502.868, 470.395 505.098, 469.623 507.355, 468.856 509.637, 468.096 511.945, 467.341 514.278, 466.591 516.637, 465.848 519.021, 465.111 521.429, 464.380 523.863, 463.655 526.321, 462.936 528.803, 462.223 531.310, 461.517 533.841, 460.818 536.396, 460.124 538.975, 459.438 541.578, 458.758 544.204, 458.084 546.854, 457.418 549.527, 456.758 552.223, 456.105 554.943, 455.459 557.685, 454.821 560.449, 454.189 563.236, 453.565 566.046, 452.948 568.878, 452.338 571.731, 451.735 574.607, 451.140 577.504, 450.553 580.424, 449.973 583.364, 449.401 586.326, 448.836 589.309, 448.280 592.312, 447.731 595.337, 447.190 598.382, 446.657 601.448, 446.132 604.534, 445.615 607.641, 445.107 610.767, 444.607 613.914, 444.115 617.080, 443.631 620.265, 443.156 623.470, 442.690 626.695, 442.232 629.938, 441.783 633.201, 441.342 636.482, 440.910 639.781, 440.487 643.100, 440.074 646.436, 439.669 649.791, 439.273 653.164, 438.886 656.555, 438.508 659.963, 438.140 663.389, 437.781 666.832, 437.431 670.293, 437.091 673.770, 436.760 677.264, 436.439 680.776, 436.128 684.303, 435.826 687.847, 435.534 691.408, 435.252 694.984, 434.979 698.576, 434.717 702.184, 434.465 705.808, 434.223 709.447, 433.991 713.102, 433.769 716.771, 433.557 720.455, 433.356 724.154, 433.165 727.868, 432.985 731.596, 432.815 735.339, 432.656 739.095, 432.507 742.866, 432.370 746.650, 432.243 750.448, 432.126 754.259, 432.021 758.083, 431.927 761.921, 431.844 765.771, 431.772 769.634, 431.711 773.510, 431.661 777.398, 431.623 781.298, 431.596 785.210, 431.580 789.134, 431.576 793.070, 431.584 797.017, 431.603 799.143, 431.619 800.976, 431.634 804.946, 431.676 808.926, 431.730 812.918, 431.797 816.920, 431.875 820.932, 431.965 824.955, 432.067 828.987, 432.181 833.030, 432.308 837.082, 432.446 841.144, 432.597 845.215, 432.761 849.295, 432.936 853.384, 433.125 857.481, 433.325 861.588, 433.539 865.702, 433.765 869.825, 434.004 873.955, 434.255 878.094, 434.520 882.240, 434.797 886.393, 435.087 890.553, 435.391 894.721, 435.707 898.895, 436.037 903.076, 436.380 907.263, 436.736 911.456, 437.106 915.655, 437.489 919.860, 437.885 924.070, 438.295 928.286, 438.718 932.506, 439.155 936.732, 439.606 940.962, 440.071 945.197, 440.549 949.435, 441.041 953.678, 441.547 957.925, 442.068 962.175, 442.602 966.429, 443.150 970.686, 443.713 974.945, 444.290 979.207, 444.881 983.472, 445.486 987.739, 446.106 992.008, 446.740 996.278, 447.389 1000.550, 448.052 1004.823, 448.730 1009.098, 449.423 1013.373, 450.130 1017.648, 450.852 1021.924, 451.589 1026.200, 452.341 1030.475, 453.108 1034.751, 453.890 1039.025, 454.687 1043.299, 455.499 1047.571, 456.326 1051.842, 457.168 1056.111, 458.026 1060.378, 458.899 1064.642, 459.788 1068.904, 460.691 1073.164, 461.611 1077.420, 462.546 1081.673, 463.496 1085.922, 464.462 1090.167, 465.444 1094.408, 466.441 1098.645, 467.455 1102.876, 468.484 1107.103, 469.529 1111.325, 470.590 1115.540, 471.666 1119.750, 472.759 1123.954, 473.868 1128.151, 474.993 1132.341, 476.134 1136.524, 477.292 1140.699, 478.465 1144.867, 479.655 1149.027, 480.861 1152.062, 481.755 " />
            <path fill="none" stroke-width="3.0" stroke-linecap="butt" stroke-opacity="1.0" stroke="rgb(0, 0, 0)" stroke-linejoin="round" d=" M 436.524, 506.207 437.087, 505.661 438.085, 504.727 439.116, 503.796 440.178, 502.867 441.273, 501.940 442.399, 501.016 443.556, 500.095 444.745, 499.176 445.965, 498.260 447.216, 497.347 448.497, 496.438 449.810, 495.531 451.153, 494.627 452.526, 493.727 453.930, 492.829 455.364, 491.936 456.828, 491.046 458.322, 490.159 459.845, 489.276 461.398, 488.397 462.981, 487.521 464.592, 486.649 466.233, 485.782 467.903, 484.918 469.601, 484.059 470.549, 483.589 " />
            <path fill="none" stroke-width="3.0" stroke-linecap="butt" stroke-opacity="1.0" stroke="rgb(0, 0, 0)" stroke-linejoin="round" d=" M 1215.110, 502.743 1212.145, 503.996 1207.778, 505.814 1205.874, 506.594 1203.375, 507.617 1198.938, 509.406 1194.465, 511.180 1189.959, 512.940 1185.420, 514.685 1180.847, 516.416 1176.243, 518.131 1171.608, 519.831 1166.942, 521.516 1162.246, 523.185 1157.521, 524.838 1152.767, 526.475 1147.985, 528.096 1143.176, 529.702 1138.340, 531.290 1133.479, 532.863 1128.592, 534.418 1123.681, 535.957 1118.746, 537.479 1113.788, 538.984 1108.807, 540.472 1103.805, 541.943 1098.782, 543.396 1093.738, 544.832 1088.675, 546.251 1083.594, 547.651 1078.494, 549.034 1073.377, 550.399 1068.243, 551.746 1063.093, 553.075 1057.928, 554.385 1052.749, 555.678 1047.556, 556.952 1042.350, 558.207 1037.131, 559.444 1031.901, 560.663 1027.906, 561.578 " />
            <path fill="none" stroke-width="3.0" stroke-linecap="butt" stroke-opacity="1.0" stroke="rgb(0, 0, 0)" stroke-linejoin="round" d=" M 1228.766, 496.803 1225.025, 498.462 1220.769, 500.321 1216.475, 502.165 1215.110, 502.743 " />
            <path fill="none" stroke-width="3.0" stroke-linecap="butt" stroke-opacity="1.0" stroke="rgb(0, 0, 0)" stroke-linejoin="round" d=" M 1320.626, 446.137 1317.596, 448.229 1316.593, 448.908 1314.453, 450.356 1311.261, 452.475 1308.018, 454.586 1304.727, 456.688 1301.386, 458.781 1297.997, 460.865 1294.560, 462.941 1291.075, 465.006 1287.543, 467.062 1283.965, 469.109 1280.340, 471.145 1276.670, 473.170 1272.954, 475.185 1269.194, 477.189 1266.905, 478.389 1265.439, 479.156 1265.389, 479.183 1264.127, 479.833 1262.692, 480.571 1261.541, 481.165 1260.995, 481.441 1260.843, 481.518 1257.649, 483.135 1253.715, 485.094 1249.738, 487.041 1245.720, 488.976 1241.661, 490.899 1237.561, 492.809 1233.422, 494.706 1229.243, 496.591 1228.766, 496.803 " />
            <path fill="none" stroke-width="3.0" stroke-linecap="butt" stroke-opacity="1.0" stroke="rgb(0, 0, 0)" stroke-linejoin="round" d=" M 1330.211, 439.229 1329.657, 439.644 1326.719, 441.801 1323.729, 443.951 1320.688, 446.094 1320.626, 446.137 " />
            <path fill="none" stroke-width="3.0" stroke-linecap="butt" stroke-opacity="1.0" stroke="rgb(0, 0, 0)" stroke-linejoin="round" d=" M 1369.613, 404.115 1369.392, 404.362 1367.320, 406.600 1365.193, 408.834 1363.010, 411.066 1360.771, 413.293 1358.477, 415.517 1356.128, 417.736 1353.724, 419.951 1351.265, 422.161 1348.751, 424.367 1346.183, 426.567 1343.562, 428.761 1340.887, 430.950 1338.159, 433.133 1335.377, 435.310 1332.543, 437.481 1330.211, 439.229 " />
            <path fill="none" stroke-width="3.0" stroke-linecap="butt" stroke-opacity="1.0" stroke="rgb(0, 0, 0)" stroke-linejoin="round" d=" M 1371.406, 402.121 1369.613, 404.115 " />
            <path fill="none" stroke-width="3.0" stroke-linecap="butt" stroke-opacity="1.0" stroke="rgb(0, 0, 0)" stroke-linejoin="round" d=" M 1383.440, 386.424 1381.973, 388.547 1380.360, 390.796 1378.691, 393.044 1376.964, 395.290 1375.181, 397.535 1373.341, 399.777 1371.445, 402.017 1369.613, 404.115 " />
            <path fill="none" stroke-width="3.0" stroke-linecap="butt" stroke-opacity="1.0" stroke="rgb(0, 0, 0)" stroke-linejoin="round" d=" M 1389.652, 376.440 1389.174, 377.290 1387.849, 379.542 1386.466, 381.794 1385.026, 384.046 1383.528, 386.297 1383.440, 386.424 " />
            <path fill="none" stroke-width="3.0" stroke-linecap="butt" stroke-opacity="1.0" stroke="rgb(0, 0, 0)" stroke-linejoin="round" d=" M 1402.514, 341.312 1402.498, 341.419 1402.100, 343.642 1401.644, 345.870 1401.130, 348.100 1400.559, 350.333 1399.929, 352.570 1399.241, 354.808 1398.496, 357.050 1397.692, 359.293 1396.830, 361.538 1395.910, 363.785 1394.932, 366.034 1394.181, 367.665 1393.896, 368.283 1392.802, 370.534 1391.651, 372.785 1390.441, 375.037 1389.652, 376.440 " />
            <path fill="none" stroke-width="3.0" stroke-linecap="butt" stroke-opacity="1.0" stroke="rgb(0, 0, 0)" stroke-linejoin="round" d=" M 1402.838, 339.199 1402.514, 341.312 " />
            <path fill="none" stroke-width="3.0" stroke-linecap="butt" stroke-opacity="1.0" stroke="rgb(0, 0, 0)" stroke-linejoin="round" d=" M 1414.418, 343.021 1414.744, 340.751 1415.012, 338.486 1415.220, 336.224 1415.370, 333.968 1415.461, 331.716 1415.493, 329.469 1415.467, 327.228 1415.382, 324.992 1415.239, 322.762 1415.038, 320.537 1414.779, 318.319 1414.461, 316.107 1414.087, 313.902 1413.654, 311.703 1413.164, 309.512 1412.617, 307.327 1412.013, 305.150 1411.351, 302.980 1410.633, 300.818 1409.859, 298.664 1409.028, 296.518 1408.141, 294.380 1407.199, 292.250 1406.033, 289.719 1405.038, 287.607 1403.988, 285.502 1402.883, 283.407 1401.722, 281.321 1400.507, 279.244 1399.238, 277.177 1397.915, 275.119 1396.537, 273.071 1395.106, 271.034 1393.621, 269.006 1392.083, 266.988 1390.492, 264.981 1388.848, 262.985 1387.152, 260.999 1385.404, 259.024 1383.604, 257.060 1381.753, 255.108 1379.850, 253.167 " />
            <path fill="none" stroke-width="3.0" stroke-linecap="butt" stroke-opacity="1.0" stroke="rgb(0, 0, 0)" stroke-linejoin="round" d=" M 1403.201, 333.241 1403.091, 335.446 1402.923, 337.656 1402.698, 339.870 1402.514, 341.312 " />
            <path fill="none" stroke-width="3.0" stroke-linecap="butt" stroke-opacity="1.0" stroke="rgb(0, 0, 0)" stroke-linejoin="round" d=" M 1395.530, 294.648 1396.391, 296.642 1397.239, 298.739 1398.031, 300.845 1398.769, 302.958 1399.451, 305.078 1400.078, 307.206 1400.648, 309.341 1401.163, 311.483 1401.622, 313.632 1402.024, 315.787 1402.370, 317.949 " />
            <path fill="none" stroke-width="3.0" stroke-linecap="butt" stroke-opacity="1.0" stroke="rgb(0, 0, 0)" stroke-linejoin="round" d=" M 1394.531, 292.471 1395.488, 294.552 1395.530, 294.648 " />
            <path fill="none" stroke-width="3.0" stroke-linecap="butt" stroke-opacity="1.0" stroke="rgb(0, 0, 0)" stroke-linejoin="round" d=" M 1370.822, 255.224 1370.467, 255.729 1370.359, 256.569 " />
            <path fill="none" stroke-width="3.0" stroke-linecap="butt" stroke-opacity="1.0" stroke="rgb(0, 0, 0)" stroke-linejoin="round" d=" M 1372.723, 252.992 1372.182, 253.289 1371.666, 254.024 " />
            <path fill="none" stroke-width="3.0" stroke-linecap="butt" stroke-opacity="1.0" stroke="rgb(0, 0, 0)" stroke-linejoin="round" d=" M 1375.375, 251.845 1374.794, 251.854 1374.007, 252.286 " />
            <path fill="none" stroke-width="3.0" stroke-linecap="butt" stroke-opacity="1.0" stroke="rgb(0, 0, 0)" stroke-linejoin="round" d=" M 1378.067, 252.090 1377.601, 251.810 1376.756, 251.823 " />
            <path fill="none" stroke-width="3.0" stroke-linecap="butt" stroke-opacity="1.0" stroke="rgb(0, 0, 0)" stroke-linejoin="round" d=" M 1379.850, 253.167 1379.173, 252.758 " />
            <path fill="none" stroke-width="3.0" stroke-linecap="butt" stroke-opacity="1.0" stroke="rgb(0, 0, 0)" stroke-linejoin="round" d=" M 408.254, 487.660 407.289, 485.950 " />
            <path fill="none" stroke-width="3.0" stroke-linecap="butt" stroke-opacity="1.0" stroke="rgb(0, 0, 0)" stroke-linejoin="round" d=" M 435.644, 505.810 427.122, 500.578 426.290, 500.068 " />
            <path fill="none" stroke-width="3.0" stroke-linecap="butt" stroke-opacity="1.0" stroke="rgb(0, 0, 0)" stroke-linejoin="round" d=" M 436.524, 506.207 435.644, 505.810 431.518, 503.947 " />
            <path fill="none" stroke-width="3.0" stroke-linecap="butt" stroke-opacity="1.0" stroke="rgb(0, 0, 0)" stroke-linejoin="round" d=" M 470.549, 483.589 471.329, 483.203 " />
            <path fill="none" stroke-width="3.0" stroke-linecap="butt" stroke-opacity="1.0" stroke="rgb(0, 0, 0)" stroke-linejoin="round" d=" M 470.549, 483.589 471.329, 483.203 " />
            <path fill="none" stroke-width="3.0" stroke-linecap="butt" stroke-opacity="1.0" stroke="rgb(0, 0, 0)" stroke-linejoin="round" d=" M 1370.359, 256.569 1370.183, 257.941 " />
            <path fill="none" stroke-width="3.0" stroke-linecap="butt" stroke-opacity="1.0" stroke="rgb(0, 0, 0)" stroke-linejoin="round" d=" M 1370.359, 256.569 1370.183, 257.941 " />
            <path fill="none" stroke-width="3.0" stroke-linecap="butt" stroke-opacity="1.0" stroke="rgb(0, 0, 0)" stroke-linejoin="round" d=" M 1371.666, 254.024 1370.822, 255.224 " />
            <path fill="none" stroke-width="3.0" stroke-linecap="butt" stroke-opacity="1.0" stroke="rgb(0, 0, 0)" stroke-linejoin="round" d=" M 1371.666, 254.024 1370.822, 255.224 " />
            <path fill="none" stroke-width="3.0" stroke-linecap="butt" stroke-opacity="1.0" stroke="rgb(0, 0, 0)" stroke-linejoin="round" d=" M 1374.007, 252.286 1372.723, 252.992 " />
            <path fill="none" stroke-width="3.0" stroke-linecap="butt" stroke-opacity="1.0" stroke="rgb(0, 0, 0)" stroke-linejoin="round" d=" M 1374.007, 252.286 1372.723, 252.992 " />
            <path fill="none" stroke-width="3.0" stroke-linecap="butt" stroke-opacity="1.0" stroke="rgb(0, 0, 0)" stroke-linejoin="round" d=" M 1376.756, 251.823 1375.375, 251.845 " />
            <path fill="none" stroke-width="3.0" stroke-linecap="butt" stroke-opacity="1.0" stroke="rgb(0, 0, 0)" stroke-linejoin="round" d=" M 1376.756, 251.823 1375.375, 251.845 " />
            <path fill="none" stroke-width="3.0" stroke-linecap="butt" stroke-opacity="1.0" stroke="rgb(0, 0, 0)" stroke-linejoin="round" d=" M 1379.173, 252.758 1378.067, 252.090 " />
            <path fill="none" stroke-width="3.0" stroke-linecap="butt" stroke-opacity="1.0" stroke="rgb(0, 0, 0)" stroke-linejoin="round" d=" M 1379.173, 252.758 1378.067, 252.090 " />
        </g>
    </g>
</svg>
