<?xml version="1.0" encoding="UTF-8" standalone="no"?>
<svg
   width="155.52278mm"
   height="89.932724mm"
   viewBox="0 0 155.52278 89.932724"
   version="1.1"
   id="svg975"
   inkscape:version="1.3 (0e150ed6c4, 2023-07-21)"
   xml:space="preserve"
   sodipodi:docname="pinwheel2.svg"
   xmlns:inkscape="http://www.inkscape.org/namespaces/inkscape"
   xmlns:sodipodi="http://sodipodi.sourceforge.net/DTD/sodipodi-0.dtd"
   xmlns:xlink="http://www.w3.org/1999/xlink"
   xmlns="http://www.w3.org/2000/svg"
   xmlns:svg="http://www.w3.org/2000/svg"
   xmlns:rdf="http://www.w3.org/1999/02/22-rdf-syntax-ns#"
   xmlns:cc="http://creativecommons.org/ns#"
   xmlns:dc="http://purl.org/dc/elements/1.1/"><defs
     id="defs969"><linearGradient
       id="linearGradient37"
       inkscape:collect="always"><stop
         style="stop-color:#ffffff;stop-opacity:1;"
         offset="0"
         id="stop36" /><stop
         style="stop-color:#808080;stop-opacity:1;"
         offset="1"
         id="stop37" /></linearGradient><rect
       x="16.133453"
       y="36.796085"
       width="19.926359"
       height="9.2448158"
       id="rect1584" /><linearGradient
       inkscape:collect="always"
       xlink:href="#linearGradient37"
       id="linearGradient26"
       x1="42.890175"
       y1="88.462128"
       x2="42.834"
       y2="25.827297"
       gradientUnits="userSpaceOnUse" /><linearGradient
       inkscape:collect="always"
       xlink:href="#linearGradient37"
       id="linearGradient28"
       x1="127.37483"
       y1="77.441391"
       x2="45.274765"
       y2="64.261871"
       gradientUnits="userSpaceOnUse" /><linearGradient
       inkscape:collect="always"
       xlink:href="#linearGradient37"
       id="linearGradient29"
       x1="159.11674"
       y1="95.217278"
       x2="88.957458"
       y2="116.61594"
       gradientUnits="userSpaceOnUse" /><linearGradient
       inkscape:collect="always"
       xlink:href="#linearGradient37"
       id="linearGradient30"
       x1="92.430756"
       y1="40.115604"
       x2="157.95348"
       y2="51.789486"
       gradientUnits="userSpaceOnUse" /><linearGradient
       inkscape:collect="always"
       xlink:href="#linearGradient37"
       id="linearGradient31"
       x1="148.01915"
       y1="76.654915"
       x2="108.92407"
       y2="85.563683"
       gradientUnits="userSpaceOnUse" /><linearGradient
       inkscape:collect="always"
       xlink:href="#linearGradient37"
       id="linearGradient32"
       x1="63.588223"
       y1="55.644489"
       x2="173.44258"
       y2="28.450615"
       gradientUnits="userSpaceOnUse" /><linearGradient
       inkscape:collect="always"
       xlink:href="#linearGradient37"
       id="linearGradient33"
       x1="69.466492"
       y1="66.524551"
       x2="59.290085"
       y2="46.266571"
       gradientUnits="userSpaceOnUse" /><linearGradient
       inkscape:collect="always"
       xlink:href="#linearGradient37"
       id="linearGradient34"
       x1="42.5187"
       y1="45.73188"
       x2="174.22081"
       y2="5.6567564"
       gradientUnits="userSpaceOnUse" /><linearGradient
       inkscape:collect="always"
       xlink:href="#linearGradient37"
       id="linearGradient39"
       gradientUnits="userSpaceOnUse"
       x1="99.404358"
       y1="73.599419"
       x2="62.435032"
       y2="79.208031" /></defs><sodipodi:namedview
     id="base"
     pagecolor="#ffffff"
     bordercolor="#666666"
     borderopacity="1.0"
     inkscape:pageopacity="0.0"
     inkscape:pageshadow="2"
     inkscape:zoom="1.6820888"
     inkscape:cx="266.03827"
     inkscape:cy="136.14025"
     inkscape:document-units="mm"
     inkscape:current-layer="layer1"
     inkscape:document-rotation="0"
     showgrid="true"
     inkscape:window-width="1920"
     inkscape:window-height="1058"
     inkscape:window-x="0"
     inkscape:window-y="0"
     inkscape:window-maximized="1"
     inkscape:showpageshadow="2"
     inkscape:pagecheckerboard="0"
     inkscape:deskcolor="#d1d1d1"><inkscape:grid
       type="xygrid"
       id="grid1596"
       units="mm"
       spacingx="2.5"
       spacingy="2.5"
       empspacing="4"
       empcolor="#3f3fff"
       empopacity="0.25098039"
       color="#3f3fff"
       opacity="0.07843137"
       originx="-94.515199"
       originy="-114.29613"
       visible="true" /></sodipodi:namedview><metadata
     id="metadata972"><rdf:RDF><cc:Work
         rdf:about=""><dc:format>image/svg+xml</dc:format><dc:type
           rdf:resource="http://purl.org/dc/dcmitype/StillImage" /></cc:Work></rdf:RDF></metadata><g
     inkscape:label="Layer 1"
     inkscape:groupmode="layer"
     id="layer1"
     transform="translate(-25.007147,-30.24085)"><g
       id="g57"><text
         xml:space="preserve"
         id="text1582"
         style="font-size:3.88056px;line-height:125%;font-family:'Linux Biolinum';-inkscape-font-specification:'Linux Biolinum';text-align:center;text-orientation:upright;white-space:pre;shape-inside:url(#rect1584);display:inline;fill:#000000;stroke:none;stroke-width:0.265;stroke-linecap:round;stroke-linejoin:round;stroke-dasharray:1.06, 1.06" /><text
         xml:space="preserve"
         style="font-style:normal;font-variant:normal;font-weight:normal;font-stretch:normal;font-size:26.6667px;line-height:125%;font-family:sans-serif;font-variant-ligatures:normal;font-variant-position:normal;font-variant-caps:normal;font-variant-numeric:normal;font-variant-alternates:normal;font-variant-east-asian:normal;font-feature-settings:normal;font-variation-settings:normal;text-indent:0;text-align:start;text-decoration:none;text-decoration-line:none;text-decoration-style:solid;text-decoration-color:#000000;letter-spacing:0px;word-spacing:0px;text-transform:none;writing-mode:lr-tb;direction:ltr;text-orientation:mixed;dominant-baseline:auto;baseline-shift:baseline;text-anchor:start;white-space:normal;shape-padding:0;shape-margin:0;inline-size:0;opacity:1;vector-effect:none;fill:#000000;fill-opacity:1;stroke:none;stroke-width:0.999999px;stroke-linecap:butt;stroke-linejoin:miter;stroke-miterlimit:4;stroke-dasharray:none;stroke-dashoffset:0;stroke-opacity:1;stop-color:#000000;stop-opacity:1"
         x="55.706844"
         y="127.27118"
         id="text1594"
         transform="scale(0.26458333)"><tspan
           sodipodi:role="line"
           id="tspan1592"
           x="55.706844"
           y="127.27118" /></text><path
         style="fill:url(#linearGradient26);fill-opacity:1;fill-rule:evenodd;stroke:#000000;stroke-width:0.264583px;stroke-linecap:butt;stroke-linejoin:miter;stroke-opacity:1"
         d="m 43.815759,53.904365 c 0.965767,5.273254 1.721678,11.723505 2.334,18.01062 1.151836,6.384329 5.144846,8.622711 8.694047,11.714675 C 36.802558,80.846168 4.6156334,66.828805 43.815759,53.904365 Z"
         id="path1"
         sodipodi:nodetypes="cccc" /><path
         style="fill:url(#linearGradient39);fill-opacity:1;fill-rule:evenodd;stroke:#000000;stroke-width:0.264583px;stroke-linecap:butt;stroke-linejoin:miter;stroke-opacity:1"
         d="m 43.015671,49.34592 c 1.515706,8.198597 2.503865,15.810514 3.134088,22.569065 0.451642,4.122765 3.412976,8.022017 8.694047,11.714673 C 96.774283,91.990972 147.01337,74.651449 156.58445,59.583243 146.39353,50.561772 131.95029,46.104314 113.99204,45.419517 98.160051,49.151902 83.200183,55.72921 72.791242,63.480867 113.90659,55.216261 141.5035,63.246589 141.42185,67.696921 141.36673,70.701246 121.76293,77.249527 99.404358,73.599418 72.595692,69.222817 47.959873,60.925471 43.015671,49.34592 Z"
         id="path2"
         sodipodi:nodetypes="ccccccssc" /><path
         style="fill:url(#linearGradient28);fill-opacity:1;fill-rule:evenodd;stroke:#000000;stroke-width:0.264583px;stroke-linecap:butt;stroke-linejoin:miter;stroke-opacity:1"
         d="M 39.279374,79.354743 C 23.89462,96.257424 47.691681,113.50331 79.495372,116.21828 107.2374,118.58652 137.40547,110.22369 159.11675,95.217278 171.90321,86.379528 179.97061,76.965769 180.38539,66.148195 181.07151,48.254242 152.7882,30.982187 120.11116,30.395027 96.058834,29.962841 69.7362,35.89885 64.544595,51.527974 c 16.875769,-6.862413 34.071954,-7.20946 51.347855,-6.493735 11.6105,-2.167768 41.05885,-1.971647 41.91668,10.445668 0.76259,4.147815 1.69569,7.911869 3.03169,10.769105 2.94385,7.925957 -5.62365,18.272398 -24.22304,25.067681 -14.36392,5.247855 -38.825227,9.922207 -61.082349,2.363252 -9.551875,-3.244003 -19.436517,-8.368564 -29.451188,-11.98373 z"
         id="path3"
         sodipodi:nodetypes="cssssccccsscc" /><path
         style="fill:url(#linearGradient29);fill-opacity:1;fill-rule:evenodd;stroke:#000000;stroke-width:0.264583px;stroke-linecap:butt;stroke-linejoin:miter;stroke-opacity:1"
         d="m 88.00785,116.58379 c 44.23834,13.78925 92.3992,-16.675705 88.70052,-38.515835 -13.95923,21.349594 -51.6086,38.722675 -88.70052,38.515835 z"
         id="path4"
         sodipodi:nodetypes="ccc" /><path
         style="fill:url(#linearGradient30);fill-opacity:1;fill-rule:evenodd;stroke:#000000;stroke-width:0.264583px;stroke-linecap:butt;stroke-linejoin:miter;stroke-opacity:1"
         d="m 113.99204,45.419517 1.90041,-0.385278 c 22.39299,-3.333119 41.54204,1.070567 41.91668,10.445668 0.11781,2.583427 -0.62377,3.180832 -1.22468,4.103336 -5.85688,-5.166345 -17.12349,-13.164952 -42.59241,-14.163726 z"
         id="path5"
         sodipodi:nodetypes="ccccc" /><path
         style="fill:url(#linearGradient31);fill-opacity:1;fill-rule:evenodd;stroke:#000000;stroke-width:0.264583px;stroke-linecap:butt;stroke-linejoin:miter;stroke-opacity:1"
         d="m 46.084243,81.696215 c 8.543148,3.045912 22.246993,10.076454 32.382986,12.929021 18.899631,5.318913 42.138561,3.368186 62.039871,-4.789292 14.09043,-5.775619 22.93204,-14.525588 20.33372,-23.586932 -1.04802,-2.564109 -2.05878,-5.890112 -3.01924,-10.244444 0.24383,5.683755 -11.04307,14.128013 -30.13706,21.32072 -22.81398,8.594031 -55.42593,11.753305 -81.600277,4.370927 z"
         id="path10"
         sodipodi:nodetypes="cssccsc" /><path
         style="fill:url(#linearGradient32);fill-opacity:1;fill-rule:evenodd;stroke:#000000;stroke-width:0.264583px;stroke-linecap:butt;stroke-linejoin:miter;stroke-opacity:1"
         d="m 115.89245,45.034239 c -19.438026,-1.011032 -37.043798,0.48368 -51.347855,6.493735 -1.744585,6.229848 -0.360227,9.80739 0.806225,13.569643 1.315456,0.488281 2.6525,0.971728 4.115674,1.426932 4.54438,-5.948363 28.377495,-18.172204 46.425956,-21.49031 z"
         id="path11"
         sodipodi:nodetypes="ccccc" /><path
         style="fill:url(#linearGradient33);fill-opacity:1;fill-rule:evenodd;stroke:#000000;stroke-width:0.264583px;stroke-linecap:butt;stroke-linejoin:miter;stroke-opacity:1"
         d="M 65.35082,65.097617 C 60.947555,63.349187 56.54029,61.672921 52.198611,58.813601 59.935602,52.834433 65.125833,48.395273 69.748915,43.533909 61.573948,51.856241 63.401015,59.72122 65.35082,65.097617 Z"
         id="path12"
         sodipodi:nodetypes="cccc" /><path
         style="fill:url(#linearGradient34);fill-opacity:1;fill-rule:evenodd;stroke:#000000;stroke-width:0.264583px;stroke-linecap:butt;stroke-linejoin:miter;stroke-opacity:1"
         d="M 52.198611,58.813601 C 57.31416,54.933487 62.334602,51.281083 68.546693,44.77558 73.040075,39.507736 81.076261,35.655709 93.317765,32.784385 63.172869,31.235823 24.409235,40.77279 52.198611,58.813601 Z"
         id="path13"
         sodipodi:nodetypes="cccc" /></g></g></svg>
